<?xml version="1.0" standalone="no"?>
<!DOCTYPE svg PUBLIC "-//W3C//DTD SVG 20010904//EN"
 "http://www.w3.org/TR/2001/REC-SVG-20010904/DTD/svg10.dtd">
<svg version="1.0" xmlns="http://www.w3.org/2000/svg"
 width="1280.000000pt" height="1280.000000pt" viewBox="0 0 1280.000000 1280.000000"
 preserveAspectRatio="xMidYMid meet">
<g transform="translate(0.000000,1280.000000) scale(0.100000,-0.100000)"
fill="#000000" stroke="none">
<path d="M5798 12207 c-145 -76 -275 -209 -349 -357 l-39 -78 0 -175 c0 -147
-3 -177 -16 -188 -12 -10 -14 -25 -10 -68 14 -151 24 -211 36 -226 8 -9 35
-27 62 -41 26 -13 53 -34 59 -46 33 -61 45 -413 17 -508 -24 -83 -86 -208
-111 -224 -12 -8 -83 -45 -157 -83 -361 -186 -553 -306 -659 -413 -53 -54 -76
-87 -115 -171 -66 -140 -66 -140 -142 -334 -82 -210 -109 -301 -120 -405 -2
-19 -11 -87 -20 -150 -10 -68 -18 -202 -20 -330 -2 -183 -6 -227 -25 -295 -23
-86 -47 -204 -56 -272 -5 -44 13 -130 52 -248 13 -38 31 -104 40 -145 43 -200
70 -279 176 -520 22 -52 63 -151 90 -220 27 -69 54 -133 59 -142 6 -10 10 -22
10 -28 0 -6 21 -60 46 -120 47 -113 108 -210 193 -308 27 -31 72 -83 100 -116
75 -87 94 -146 86 -271 -17 -294 -9 -366 60 -543 38 -100 48 -138 71 -274 21
-129 41 -251 59 -353 53 -299 65 -408 70 -645 5 -223 22 -633 29 -700 7 -66
26 -181 31 -189 2 -4 9 -43 15 -87 11 -84 13 -98 30 -184 22 -119 42 -251 55
-370 54 -489 73 -649 80 -686 8 -37 -9 -74 -62 -136 -54 -63 -91 -144 -75
-166 19 -26 92 -182 92 -197 0 -7 7 -18 15 -25 33 -28 18 -82 -69 -252 -96
-186 -130 -269 -121 -298 3 -10 38 -47 77 -80 l71 -62 151 4 c150 3 152 3 220
38 82 42 116 80 246 275 100 150 130 217 130 292 0 25 4 60 9 77 5 17 14 58
20 91 5 33 18 94 27 135 25 110 19 268 -15 390 -64 227 -64 240 -64 1405 0
923 2 1088 16 1200 9 72 21 175 27 230 5 55 14 113 19 130 5 16 13 55 16 85 4
30 11 62 16 71 4 9 13 56 18 105 6 49 16 112 22 139 7 28 13 68 14 90 2 50 14
95 25 95 14 0 21 -17 35 -78 12 -55 29 -108 82 -254 14 -37 35 -109 49 -160
36 -141 48 -180 108 -353 30 -88 78 -225 105 -304 66 -189 92 -296 147 -596
44 -248 58 -343 89 -625 8 -74 21 -191 29 -260 9 -69 20 -163 25 -210 6 -47
15 -107 21 -135 39 -187 79 -456 84 -575 9 -170 99 -430 228 -657 39 -68 75
-140 81 -160 5 -21 13 -137 16 -258 7 -249 13 -271 88 -332 73 -58 105 -66
248 -67 128 0 131 0 185 31 70 41 108 76 117 111 13 46 7 174 -10 234 -12 40
-17 94 -17 186 0 84 -4 133 -11 138 -7 4 -8 22 -4 48 3 22 10 97 14 166 6 89
14 142 30 185 48 129 47 136 -17 282 -81 187 -95 246 -122 538 -5 55 -14 123
-20 150 -6 28 -15 109 -20 180 -20 266 -30 361 -39 395 -6 19 -13 55 -16 80
-8 65 -12 89 -23 145 -5 28 -17 91 -27 140 -9 50 -21 100 -26 113 -5 13 -9 36
-9 52 0 16 -5 39 -10 52 -6 13 -15 91 -20 173 -6 83 -17 236 -26 340 -8 105
-21 361 -29 570 -18 468 -54 965 -74 1030 -5 17 -12 53 -16 80 -3 28 -11 64
-16 80 -26 82 -49 210 -49 269 0 82 9 105 154 374 74 139 91 182 116 297 25
112 42 172 95 329 25 75 45 147 45 159 0 21 12 64 50 172 14 40 25 54 56 70
l39 20 7 178 c6 153 10 187 31 245 53 146 55 163 28 307 -5 28 -14 79 -20 115
-12 74 -12 71 -82 315 -76 266 -122 398 -211 615 -45 107 -93 229 -108 270
-100 272 -145 364 -219 445 -115 126 -228 183 -625 316 -215 72 -220 75 -275
134 -50 54 -81 121 -106 226 -27 117 -16 188 75 474 58 184 58 192 27 510 -17
175 -27 215 -68 297 -47 93 -121 161 -231 212 -152 71 -206 86 -312 86 -88 0
-99 -2 -158 -33z m-821 -4098 c12 -35 23 -78 23 -96 0 -18 4 -42 10 -55 5 -13
14 -75 20 -138 6 -63 14 -135 17 -159 3 -25 0 -67 -5 -95 -6 -28 -16 -94 -21
-146 -10 -92 -31 -237 -51 -350 -15 -87 -29 -238 -30 -323 0 -69 -2 -78 -17
-75 -13 2 -20 17 -24 56 -4 28 -10 60 -14 69 -4 10 -14 63 -22 118 -8 55 -18
123 -23 150 -5 28 -14 88 -20 135 -6 47 -15 99 -20 115 -5 17 -11 62 -15 100
-3 39 -11 91 -17 117 -10 41 -8 56 15 130 15 46 27 97 27 112 0 16 16 76 35
135 19 58 44 138 55 176 11 39 23 76 25 83 10 27 30 4 52 -59z m2405 -214 c34
-23 36 -27 32 -67 -3 -24 -10 -66 -16 -95 -8 -38 -8 -63 1 -97 6 -24 11 -61
11 -81 0 -20 8 -50 17 -68 16 -28 18 -61 17 -252 0 -254 -19 -395 -53 -395
-17 0 -54 249 -63 420 -4 96 -13 191 -19 210 -10 33 -8 123 6 340 8 125 9 125
67 85z"/>
</g>
</svg>
